{"asset":{"version":"2.0","generator":"VECTARY"},"nodes":[{"translation":[0,0,0],"scale":[0.005,0.005,0.005],"rotation":[-0.7071067811865475,0,0,0.7071067811865476],"name":"Group 3","children":[1,5]},{"translation":[-2.4679433547509007,-0.22616632988990837,9.999999999999945],"scale":[1,1,1],"rotation":[0,0,0,1],"name":"Group 1","children":[2]},{"translation":[0,0,0],"scale":[1,1,1],"rotation":[0,0,0,1],"name":"Group","children":[3,4]},{"translation":[0,0,0],"scale":[0.9917327505686732,1.052632063996383,0.9392240184551411],"rotation":[1.110223024625157e-16,0,0,1],"name":"Box 1","mesh":0},{"translation":[-0.300930645249101,-9.973833670110093,85.31000000000006],"scale":[0.6846540500139788,0.6640617073916261,0.6792452830188687],"rotation":[0.7071067811865476,0,0,0.7071067811865475],"name":"CodeFest 2022 1st Place","mesh":1},{"translation":[0,0,0],"scale":[1,1,1],"rotation":[0,0,0,1],"name":"Group 2","children":[6]},{"translation":[0,0,0],"scale":[1,1,1],"rotation":[0,0,0,1],"name":"Box","mesh":2}],"materials":[{"pbrMetallicRoughness":{"baseColorFactor":[0.6800203421720954,0.4368127538003594,0.03287591694838383,0.99],"metallicFactor":0.94,"roughnessFactor":0},"name":"Glass","emissiveFactor":[0,0,0],"alphaMode":"BLEND","doubleSided":false},{"pbrMetallicRoughness":{"baseColorFactor":[0,0,0,1],"baseColorTexture":{"index":0,"extensions":{"KHR_texture_transform":{"offset":[0,0],"scale":[1,1],"rotation":0}},"texCoord":0},"metallicFactor":0,"roughnessFactor":1},"name":"","emissiveTexture":{"index":1,"extensions":{"KHR_texture_transform":{"offset":[0,0],"scale":[1,1],"rotation":0}},"texCoord":0},"emissiveFactor":[1,1,1],"alphaMode":"BLEND","doubleSided":true},{"pbrMetallicRoughness":{"baseColorFactor":[1,1,1,1],"baseColorTexture":{"index":2,"extensions":{"KHR_texture_transform":{"offset":[0,0],"scale":[1,1],"rotation":0}},"texCoord":0},"metallicRoughnessTexture":{"index":4,"extensions":{"KHR_texture_transform":{"offset":[0,0],"scale":[1,1],"rotation":0}},"texCoord":0},"metallicFactor":1,"roughnessFactor":0.9},"name":"Wood","normalTexture":{"index":3,"scale":1,"extensions":{"KHR_texture_transform":{"offset":[0,0],"scale":[1,1],"rotation":0}},"texCoord":0},"emissiveFactor":[0,0,0],"alphaMode":"OPAQUE","doubleSided":false}],"meshes":[{"primitives":[{"mode":4,"attributes":{"POSITION":1,"NORMAL":2,"TEXCOORD_0":3},"material":0,"indices":0}]},{"primitives":[{"mode":4,"attributes":{"POSITION":5,"NORMAL":6,"TEXCOORD_0":7},"material":1,"indices":4}]},{"primitives":[{"mode":4,"attributes":{"POSITION":9,"NORMAL":10,"TEXCOORD_0":11},"material":2,"indices":8}]}],"accessors":[{"bufferView":0,"byteOffset":0,"componentType":5125,"count":324,"type":"SCALAR"},{"bufferView":1,"byteOffset":0,"componentType":5126,"count":92,"max":[60.5,9.5,181],"min":[-60.5,-9.5,0],"type":"VEC3"},{"bufferView":2,"byteOffset":0,"componentType":5126,"count":92,"type":"VEC3"},{"bufferView":3,"byteOffset":0,"componentType":5126,"count":92,"type":"VEC2"},{"bufferView":4,"byteOffset":0,"componentType":5125,"count":150,"type":"SCALAR"},{"bufferView":5,"byteOffset":0,"componentType":5126,"count":36,"max":[87.63534545898438,128,0.20000000298023224],"min":[-87.63534545898438,-128,0.20000000298023224],"type":"VEC3"},{"bufferView":6,"byteOffset":0,"componentType":5126,"count":36,"type":"VEC3"},{"bufferView":7,"byteOffset":0,"componentType":5126,"count":36,"type":"VEC2"},{"bufferView":8,"byteOffset":0,"componentType":5125,"count":36,"type":"SCALAR"},{"bufferView":9,"byteOffset":0,"componentType":5126,"count":24,"max":[73.5,28,10],"min":[-73.5,-28,0],"type":"VEC3"},{"bufferView":10,"byteOffset":0,"componentType":5126,"count":24,"type":"VEC3"},{"bufferView":11,"byteOffset":0,"componentType":5126,"count":24,"type":"VEC2"}],"bufferViews":[{"buffer":0,"byteOffset":0,"byteLength":1296,"target":34963},{"buffer":0,"byteOffset":1296,"byteLength":1104,"target":34962},{"buffer":0,"byteOffset":2400,"byteLength":1104,"target":34962},{"buffer":0,"byteOffset":3504,"byteLength":736,"target":34962},{"buffer":0,"byteOffset":4240,"byteLength":600,"target":34963},{"buffer":0,"byteOffset":4840,"byteLength":432,"target":34962},{"buffer":0,"byteOffset":5272,"byteLength":432,"target":34962},{"buffer":0,"byteOffset":5704,"byteLength":288,"target":34962},{"buffer":0,"byteOffset":5992,"byteLength":144,"target":34963},{"buffer":0,"byteOffset":6136,"byteLength":288,"target":34962},{"buffer":0,"byteOffset":6424,"byteLength":288,"target":34962},{"buffer":0,"byteOffset":6712,"byteLength":192,"target":34962}],"textures":[{"sampler":0,"source":0},{"sampler":0,"source":1},{"sampler":1,"source":2},{"sampler":1,"source":3},{"sampler":1,"source":4}],"images":[{"uri":"CodeFest_2022_1st_Place&CodeFest_2022_1st_Place_alpha.png","mimeType":"image/png"},{"uri":"CodeFest_2022_1st_Place.jpg","mimeType":"image/jpeg"},{"uri":"wood_027_base_1.jpg","mimeType":"image/jpeg"},{"uri":"wood_027_Normal_1.jpg","mimeType":"image/jpeg"},{"uri":"wood_027_Metalic_1&wood_027_Rough_1.jpg","mimeType":"image/jpeg"}],"samplers":[{"wrapS":33071,"wrapT":33071},{"wrapS":10497,"wrapT":10497}],"scene":0,"scenes":[{"nodes":[0],"name":"codefest"}],"extensionsUsed":["KHR_texture_transform"],"buffers":[{"byteLength":6904,"uri":"codefest.bin"}]}